<svg xmlns="http://www.w3.org/2000/svg" width="26" height="26" viewBox="0 0 26 26">
  <g id="Group_57173" data-name="Group 57173" transform="translate(251 4238)">
    <circle id="Ellipse_1570" data-name="Ellipse 1570" cx="13" cy="13" r="13" transform="translate(-251 -4238)" fill="#d07690"/>
    <g id="Group_56510" data-name="Group 56510" transform="translate(-243 -4232.009)">
      <path id="Path_57644" data-name="Path 57644" d="M896.463,2484.57a.818.818,0,0,0,.325-.728c-.006-.99.017-1.981.018-2.972a3.487,3.487,0,0,0-2.021-3.288,4.013,4.013,0,0,0-5.3,1.513,1.749,1.749,0,0,0-.17.382.5.5,0,0,0,.285.594.5.5,0,0,0,.629-.2,1.6,1.6,0,0,0,.083-.159,3.008,3.008,0,0,1,4.88-.551,2.458,2.458,0,0,1,.6,1.655c0,.981-.006,1.961-.022,2.942a.851.851,0,0,0,.34.812Z" transform="translate(-888.206 -2472.561)" fill="#fff"/>
      <path id="Path_57645" data-name="Path 57645" d="M923.148,2401c-.091.037-.181.075-.273.111a1.94,1.94,0,1,0,1.386,0c-.091-.035-.182-.074-.273-.111Zm.412,1.015a.906.906,0,1,1-.9.914A.881.881,0,0,1,923.56,2402.015Z" transform="translate(-918.854 -2401)" fill="#fff"/>
      <path id="Path_57646" data-name="Path 57646" d="M946.954,2532.155H944.2a2.012,2.012,0,0,0-.24.005.575.575,0,0,0-.5.606c.016.254.2.415.526.419.63.008,1.26,0,1.891,0h1.27c-.146.167-.255.3-.369.421s-.241.242-.343.377a.514.514,0,0,0,.035.638.473.473,0,0,0,.625.09.952.952,0,0,0,.2-.173q.651-.686,1.3-1.375a.53.53,0,0,0,.005-.84q-.664-.715-1.339-1.419a.515.515,0,0,0-.767-.071.52.52,0,0,0,.029.772c.146.163.3.321.448.481Z" transform="translate(-943.457 -2522.908)" fill="#fff"/>
    </g>
  </g>
</svg>
