<svg xmlns="http://www.w3.org/2000/svg" width="26" height="26" viewBox="0 0 26 26">
  <g id="Group_57175" data-name="Group 57175" transform="translate(251 4150)">
    <circle id="Ellipse_1568" data-name="Ellipse 1568" cx="13" cy="13" r="13" transform="translate(-251 -4150)" fill="red" opacity="0.743"/>
    <g id="trash-2" transform="translate(-243 -4142)">
      <path id="Path_57755" data-name="Path 57755" d="M3,6h9.38" transform="translate(-3 -3.916)" fill="none" stroke="#fff" stroke-linecap="round" stroke-linejoin="round" stroke-width="1"/>
      <path id="Path_57756" data-name="Path 57756" d="M12.3,4.084v7.3a1.042,1.042,0,0,1-1.042,1.042H6.042A1.042,1.042,0,0,1,5,11.38v-7.3m1.563,0V3.042A1.042,1.042,0,0,1,7.605,2H9.69a1.042,1.042,0,0,1,1.042,1.042V4.084" transform="translate(-3.958 -2)" fill="none" stroke="#fff" stroke-linecap="round" stroke-linejoin="round" stroke-width="1"/>
      <line id="Line_302" data-name="Line 302" y2="3.127" transform="translate(3.648 4.69)" fill="none" stroke="#fff" stroke-linecap="round" stroke-linejoin="round" stroke-width="1"/>
      <line id="Line_303" data-name="Line 303" y2="3.127" transform="translate(5.732 4.69)" fill="none" stroke="#fff" stroke-linecap="round" stroke-linejoin="round" stroke-width="1"/>
    </g>
  </g>
</svg>
