<svg xmlns="http://www.w3.org/2000/svg" width="26" height="26" viewBox="0 0 26 26">
  <g id="Group_57172" data-name="Group 57172" transform="translate(251 4283)">
    <circle id="Ellipse_1571" data-name="Ellipse 1571" cx="13" cy="13" r="13" transform="translate(-251 -4283)" fill="#1bc0da"/>
    <g id="users_1_" data-name="users (1)" transform="translate(-243 -4274)">
      <path id="Path_57757" data-name="Path 57757" d="M8.487,17.808v-.936A1.872,1.872,0,0,0,6.615,15H2.872A1.872,1.872,0,0,0,1,16.872v.936" transform="translate(-1 -9.385)" fill="none" stroke="#fff" stroke-linecap="round" stroke-linejoin="round" stroke-width="1"/>
      <circle id="Ellipse_1567" data-name="Ellipse 1567" cx="1.872" cy="1.872" r="1.872" transform="translate(1.872 0)" fill="none" stroke="#fff" stroke-linecap="round" stroke-linejoin="round" stroke-width="1"/>
      <path id="Path_57758" data-name="Path 57758" d="M21.4,17.877v-.936A1.872,1.872,0,0,0,20,15.13" transform="translate(-11.109 -9.454)" fill="none" stroke="#fff" stroke-linecap="round" stroke-linejoin="round" stroke-width="1"/>
      <path id="Path_57759" data-name="Path 57759" d="M16,3.13a1.872,1.872,0,0,1,0,3.627" transform="translate(-8.981 -3.069)" fill="none" stroke="#fff" stroke-linecap="round" stroke-linejoin="round" stroke-width="1"/>
    </g>
  </g>
</svg>
