<svg xmlns="http://www.w3.org/2000/svg" width="44" height="44" viewBox="0 0 44 44">
  <g id="Group_57180" data-name="Group 57180" transform="translate(237 3934)">
    <circle id="Ellipse_1561" data-name="Ellipse 1561" cx="22" cy="22" r="22" transform="translate(-237 -3934)" fill="#fe8628"/>
    <g id="Group_57029" data-name="Group 57029" transform="translate(-4876.526 -4108.5)">
      <path id="Icon_feather-phone-call" data-name="Icon feather-phone-call" d="M14.273,4.933a4.292,4.292,0,0,1,3.39,3.39M14.273,1.5A7.725,7.725,0,0,1,21.1,8.315m-.858,6.849v2.575a1.717,1.717,0,0,1-1.871,1.717,16.986,16.986,0,0,1-7.407-2.635,16.737,16.737,0,0,1-5.15-5.15A16.986,16.986,0,0,1,3.175,4.229,1.717,1.717,0,0,1,4.883,2.358H7.458A1.717,1.717,0,0,1,9.174,3.835a11.021,11.021,0,0,0,.6,2.412,1.717,1.717,0,0,1-.386,1.811L8.3,9.148a13.733,13.733,0,0,0,5.15,5.15l1.09-1.09a1.717,1.717,0,0,1,1.811-.386,11.021,11.021,0,0,0,2.412.6A1.717,1.717,0,0,1,20.238,15.164Z" transform="translate(4649.358 187)" fill="none" stroke="#f7f7f7" stroke-linecap="round" stroke-linejoin="round" stroke-width="1.2"/>
    </g>
  </g>
</svg>
