<svg xmlns="http://www.w3.org/2000/svg" width="26" height="26" viewBox="0 0 26 26">
  <g id="Group_57183" data-name="Group 57183" transform="translate(251 4330)">
    <circle id="Ellipse_1572" data-name="Ellipse 1572" cx="13" cy="13" r="13" transform="translate(-251 -4330)" fill="#fe8628"/>
    <g id="Layer_2" data-name="Layer 2" transform="translate(-245.337 -4326.042)">
      <g id="icons_Q2" data-name="icons Q2" transform="translate(1 3.5)">
        <path id="Path_57749" data-name="Path 57749" d="M14.1,7H2.576A.576.576,0,0,0,2,7.576v8.642a.576.576,0,0,0,.576.576H14.1a.576.576,0,0,0,.576-.576V7.576A.576.576,0,0,0,14.1,7Zm-.576,8.642H3.152V9.794l5.041,2.967a.259.259,0,0,0,.288,0l5.041-3.053ZM8.481,11.436a.259.259,0,0,1-.288,0L3.152,8.152h10.37Z" transform="translate(-2 -7)" fill="#f7f7f7" stroke="#fe8628" stroke-width="0.2"/>
      </g>
    </g>
  </g>
</svg>
