<svg id="Group_57182" data-name="Group 57182" xmlns="http://www.w3.org/2000/svg" width="44" height="44" viewBox="0 0 44 44">
  <circle id="Ellipse_1558" data-name="Ellipse 1558" cx="22" cy="22" r="22" fill="#88919d"/>
  <g id="Group_57030" data-name="Group 57030" transform="translate(-16.5 3839.5)">
    <path id="Path_57609" data-name="Path 57609" d="M19.5,18A1.5,1.5,0,1,1,18,16.5,1.5,1.5,0,0,1,19.5,18Z" transform="translate(20.5 -3799) rotate(-90)" fill="#f7f7f7" stroke="#f7f7f7" stroke-linecap="round" stroke-linejoin="round" stroke-width="2"/>
    <path id="Path_57610" data-name="Path 57610" d="M19.5,7.5A1.5,1.5,0,1,1,18,6a1.5,1.5,0,0,1,1.5,1.5Z" transform="translate(20.5 -3799) rotate(-90)" fill="#f7f7f7" stroke="#f7f7f7" stroke-linecap="round" stroke-linejoin="round" stroke-width="2"/>
    <path id="Path_57611" data-name="Path 57611" d="M19.5,28.5A1.5,1.5,0,1,1,18,27,1.5,1.5,0,0,1,19.5,28.5Z" transform="translate(20.5 -3799) rotate(-90)" fill="#f7f7f7" stroke="#f7f7f7" stroke-linecap="round" stroke-linejoin="round" stroke-width="2"/>
  </g>
</svg>
